<svg width="41" height="40" viewBox="0 0 41 40" fill="none" xmlns="http://www.w3.org/2000/svg">
<g clip-path="url(#clip0_519_1416)">
<path d="M20.9799 3.51875C26.3281 3.51875 26.9615 3.54165 29.0648 3.63324C31.0196 3.71721 32.0751 4.03779 32.7788 4.30494C33.7093 4.65605 34.3817 5.08349 35.0776 5.76281C35.7813 6.44977 36.2114 7.09856 36.5711 8.00688C36.8447 8.69383 37.1731 9.7319 37.2591 11.6325C37.353 13.6934 37.3764 14.3116 37.3764 19.5249C37.3764 24.7457 37.353 25.364 37.2591 27.4173C37.1731 29.3255 36.8447 30.3559 36.5711 31.0429C36.2114 31.9512 35.7735 32.6076 35.0776 33.2869C34.3739 33.9739 33.7093 34.3937 32.7788 34.7448C32.0751 35.012 31.0117 35.3325 29.0648 35.4165C26.9537 35.5081 26.3203 35.531 20.9799 35.531C15.6317 35.531 14.9984 35.5081 12.895 35.4165C10.9403 35.3325 9.88471 35.012 9.181 34.7448C8.25053 34.3937 7.5781 33.9663 6.8822 33.2869C6.17849 32.6 5.74844 31.9512 5.38877 31.0429C5.1151 30.3559 4.7867 29.3178 4.70069 27.4173C4.60686 25.3564 4.58341 24.7381 4.58341 19.5249C4.58341 14.304 4.60686 13.6857 4.70069 11.6325C4.7867 9.72427 5.1151 8.69383 5.38877 8.00688C5.74844 7.09856 6.18631 6.44214 6.8822 5.76281C7.58592 5.07586 8.25053 4.65605 9.181 4.30494C9.88471 4.03779 10.9481 3.71721 12.895 3.63324C14.9984 3.54165 15.6317 3.51875 20.9799 3.51875ZM20.9799 0C15.5457 0 14.8654 0.0228986 12.7308 0.114493C10.6041 0.206087 9.1419 0.541933 7.87522 1.0228C6.5538 1.52657 5.43568 2.19063 4.32538 3.28213C3.20726 4.366 2.527 5.4575 2.01095 6.73982C1.51835 7.98398 1.17431 9.40369 1.08048 11.4798C0.986653 13.5712 0.963196 14.2353 0.963196 19.5401C0.963196 24.845 0.986653 25.509 1.08048 27.5928C1.17431 29.6689 1.51835 31.0963 2.01095 32.3328C2.527 33.6228 3.20726 34.7143 4.32538 35.7981C5.43568 36.882 6.5538 37.5537 7.8674 38.0498C9.1419 38.5307 10.5962 38.8665 12.723 38.9581C14.8576 39.0497 15.5379 39.0726 20.9721 39.0726C26.4063 39.0726 27.0866 39.0497 29.2212 38.9581C31.348 38.8665 32.8101 38.5307 34.0768 38.0498C35.3904 37.5537 36.5085 36.882 37.6188 35.7981C38.7291 34.7143 39.4172 33.6228 39.9254 32.3405C40.418 31.0963 40.7621 29.6766 40.8559 27.6004C40.9497 25.5167 40.9732 24.8526 40.9732 19.5478C40.9732 14.2429 40.9497 13.5789 40.8559 11.4951C40.7621 9.41896 40.418 7.99161 39.9254 6.75509C39.4328 5.4575 38.7526 4.366 37.6345 3.28213C36.5242 2.19827 35.406 1.52657 34.0924 1.03044C32.8179 0.549566 31.3636 0.21372 29.2368 0.122126C27.0944 0.0228986 26.4141 0 20.9799 0Z" fill="white"/>
<path d="M20.9799 9.50293C15.3033 9.50293 10.6979 13.9987 10.6979 19.5401C10.6979 25.0816 15.3033 29.5774 20.9799 29.5774C26.6565 29.5774 31.2619 25.0816 31.2619 19.5401C31.2619 13.9987 26.6565 9.50293 20.9799 9.50293ZM20.9799 26.051C17.2971 26.051 14.3103 23.1352 14.3103 19.5401C14.3103 15.9451 17.2971 13.0293 20.9799 13.0293C24.6627 13.0293 27.6495 15.9451 27.6495 19.5401C27.6495 23.1352 24.6627 26.051 20.9799 26.051Z" fill="white"/>
<path d="M34.069 9.10599C34.069 10.4036 32.99 11.4493 31.6685 11.4493C30.3393 11.4493 29.2681 10.3959 29.2681 9.10599C29.2681 7.8084 30.3471 6.7627 31.6685 6.7627C32.99 6.7627 34.069 7.81603 34.069 9.10599Z" fill="white"/>
</g>
<defs>
<clipPath id="clip0_519_1416">
<rect width="40.0334" height="39.0803" fill="white" transform="translate(0.963196)"/>
</clipPath>
</defs>
</svg>
