<svg width="41" height="40" viewBox="0 0 41 40" fill="none" xmlns="http://www.w3.org/2000/svg">
<path d="M20.9799 3.51875C26.3281 3.51875 26.9614 3.54165 29.0647 3.63324C31.0195 3.71721 32.0751 4.03779 32.7788 4.30494C33.7092 4.65605 34.3817 5.08349 35.0776 5.76281C35.7813 6.44977 36.2113 7.09856 36.571 8.00688C36.8447 8.69383 37.1731 9.7319 37.2591 11.6325C37.3529 13.6934 37.3764 14.3116 37.3764 19.5249C37.3764 24.7457 37.3529 25.364 37.2591 27.4173C37.1731 29.3255 36.8447 30.3559 36.571 31.0429C36.2113 31.9512 35.7735 32.6076 35.0776 33.2869C34.3739 33.9739 33.7092 34.3937 32.7788 34.7448C32.0751 35.012 31.0117 35.3325 29.0647 35.4165C26.9536 35.5081 26.3203 35.531 20.9799 35.531C15.6316 35.531 14.9983 35.5081 12.895 35.4165C10.9402 35.3325 9.88465 35.012 9.18094 34.7448C8.25047 34.3937 7.57804 33.9663 6.88214 33.2869C6.17843 32.6 5.74838 31.9512 5.38871 31.0429C5.11504 30.3559 4.78664 29.3178 4.70063 27.4173C4.6068 25.3564 4.58335 24.7381 4.58335 19.5249C4.58335 14.304 4.6068 13.6857 4.70063 11.6325C4.78664 9.72427 5.11504 8.69383 5.38871 8.00688C5.74838 7.09856 6.18625 6.44214 6.88214 5.76281C7.58585 5.07586 8.25047 4.65605 9.18094 4.30494C9.88465 4.03779 10.948 3.71721 12.895 3.63324C14.9983 3.54165 15.6316 3.51875 20.9799 3.51875ZM20.9799 0C15.5456 0 14.8654 0.0228986 12.7308 0.114493C10.604 0.206087 9.14184 0.541933 7.87516 1.0228C6.55374 1.52657 5.43562 2.19063 4.32532 3.28213C3.2072 4.366 2.52694 5.4575 2.01089 6.73982C1.51829 7.98398 1.17425 9.40369 1.08042 11.4798C0.986592 13.5712 0.963135 14.2353 0.963135 19.5401C0.963135 24.845 0.986592 25.509 1.08042 27.5928C1.17425 29.6689 1.51829 31.0963 2.01089 32.3328C2.52694 33.6228 3.2072 34.7143 4.32532 35.7981C5.43562 36.882 6.55374 37.5537 7.86734 38.0498C9.14184 38.5307 10.5962 38.8665 12.723 38.9581C14.8576 39.0497 15.5378 39.0726 20.972 39.0726C26.4063 39.0726 27.0865 39.0497 29.2211 38.9581C31.3479 38.8665 32.8101 38.5307 34.0767 38.0498C35.3903 37.5537 36.5085 36.882 37.6188 35.7981C38.7291 34.7143 39.4171 33.6228 39.9254 32.3405C40.418 31.0963 40.762 29.6766 40.8558 27.6004C40.9497 25.5167 40.9731 24.8526 40.9731 19.5478C40.9731 14.2429 40.9497 13.5789 40.8558 11.4951C40.762 9.41896 40.418 7.99161 39.9254 6.75509C39.4328 5.4575 38.7525 4.366 37.6344 3.28213C36.5241 2.19827 35.406 1.52657 34.0924 1.03044C32.8179 0.549566 31.3635 0.21372 29.2368 0.122126C27.0943 0.0228986 26.4141 0 20.9799 0Z" fill="white"/>
</svg>
