<svg width="119" height="83" viewBox="0 0 119 83" fill="none" xmlns="http://www.w3.org/2000/svg">
<path d="M29.1 31.3C36.5 31.3 42.6 33.8 47.4 38.8C52.4 43.6 54.9 49.7 54.9 57.1C54.9 64.1 52.3 70.1 47.1 75.1C41.9 79.9 35.6 82.3 28.2 82.3C19.6 82.3 12.7 79.5 7.5 73.9C2.5 68.3 2.23517e-07 59.8 2.23517e-07 48.4C2.23517e-07 31 5.1 18.7 15.3 11.5C25.7 4.29998 38.4 0.699983 53.4 0.699983V8.49999C44.8 9.9 37.3 12.7 30.9 16.9C24.7 20.9 21.6 25.9 21.6 31.9C23.4 31.5 25.9 31.3 29.1 31.3ZM93 31.3C100.4 31.3 106.5 33.8 111.3 38.8C116.3 43.6 118.8 49.7 118.8 57.1C118.8 64.1 116.2 70.1 111 75.1C105.8 79.9 99.5 82.3 92.1 82.3C83.5 82.3 76.6 79.5 71.4 73.9C66.4 68.3 63.9 59.8 63.9 48.4C63.9 31 69 18.7 79.2 11.5C89.6 4.29998 102.3 0.699983 117.3 0.699983V8.49999C108.7 9.9 101.2 12.7 94.8 16.9C88.6 20.9 85.5 25.9 85.5 31.9C87.3 31.5 89.8 31.3 93 31.3Z" fill="#0F4B6F"/>
</svg>
