<svg width="40" height="40" viewBox="0 0 40 40" fill="none" xmlns="http://www.w3.org/2000/svg">
<path d="M37.1071 0H3.8049C2.20963 0 0.919678 1.25942 0.919678 2.81653V36.2561C0.919678 37.8132 2.20963 39.0803 3.8049 39.0803H37.1071C38.7024 39.0803 39.9999 37.8132 39.9999 36.2637V2.81653C39.9999 1.25942 38.7024 0 37.1071 0ZM12.514 33.3022H6.71302V14.6475H12.514V33.3022ZM9.61351 12.1057C7.75109 12.1057 6.24742 10.602 6.24742 8.74726C6.24742 6.89248 7.75109 5.3888 9.61351 5.3888C11.4683 5.3888 12.972 6.89248 12.972 8.74726C12.972 10.5944 11.4683 12.1057 9.61351 12.1057ZM34.2219 33.3022H28.4285V24.2343C28.4285 22.0742 28.3904 19.2882 25.4135 19.2882C22.3986 19.2882 21.9406 21.6468 21.9406 24.0817V33.3022H16.1549V14.6475H21.7116V17.1968H21.7879C22.5588 15.7313 24.4518 14.1819 27.2683 14.1819C33.138 14.1819 34.2219 18.0441 34.2219 23.0665V33.3022Z" fill="white"/>
</svg>
