<svg width="119" height="83" viewBox="0 0 119 83" fill="none" xmlns="http://www.w3.org/2000/svg">
<path d="M26.7 0.699983C35.3 0.699983 42.1 3.49998 47.1 9.09998C52.3 14.7 54.9 23.2 54.9 34.6C54.9 52 49.7 64.3 39.3 71.5C29.1 78.7 16.5 82.3 1.5 82.3V74.5C10.1 73.1 17.5 70.4 23.7 66.4C30.1 62.2 33.3 57.1 33.3 51.1C31.5 51.5 29 51.7 25.8 51.7C18.4 51.7 12.2 49.3 7.2 44.5C2.4 39.5 2.23517e-07 33.3 2.23517e-07 25.9C2.23517e-07 18.9 2.6 13 7.8 8.19999C13 3.19999 19.3 0.699983 26.7 0.699983ZM90.6 0.699983C99.2 0.699983 106 3.49998 111 9.09998C116.2 14.7 118.8 23.2 118.8 34.6C118.8 52 113.6 64.3 103.2 71.5C93 78.7 80.4 82.3 65.4 82.3V74.5C74 73.1 81.4 70.4 87.6 66.4C94 62.2 97.2 57.1 97.2 51.1C95.4 51.5 92.9 51.7 89.7 51.7C82.3 51.7 76.1 49.3 71.1 44.5C66.3 39.5 63.9 33.3 63.9 25.9C63.9 18.9 66.5 13 71.7 8.19999C76.9 3.19999 83.2 0.699983 90.6 0.699983Z" fill="#0F4B6F"/>
</svg>
