<svg width="25" height="26" viewBox="0 0 25 26" fill="none" xmlns="http://www.w3.org/2000/svg">
<path fill-rule="evenodd" clip-rule="evenodd" d="M20.0352 10.0176C20.0352 15.5502 15.5502 20.0352 10.0176 20.0352C4.48504 20.0352 0 15.5502 0 10.0176C0 4.48504 4.48504 0 10.0176 0C15.5502 0 20.0352 4.48504 20.0352 10.0176ZM10.0176 16.3924C13.5383 16.3924 16.3924 13.5383 16.3924 10.0176C16.3924 6.49688 13.5383 3.64277 10.0176 3.64277C6.49688 3.64277 3.64277 6.49688 3.64277 10.0176C3.64277 13.5383 6.49688 16.3924 10.0176 16.3924Z" fill="#0F4B6F"/>
<path fill-rule="evenodd" clip-rule="evenodd" d="M21.6569 25.2665L14.4379 18.0475L16.9902 15.4952L24.2092 22.7142L21.6569 25.2665Z" fill="#0F4B6F"/>
</svg>
