<svg width="40" height="33" viewBox="0 0 40 33" fill="none" xmlns="http://www.w3.org/2000/svg">
<path d="M12.2943 32.4165C27.0379 32.4165 35.1043 20.1986 35.1043 9.60643C35.1043 9.26295 35.0967 8.91184 35.0814 8.56836C36.6506 7.43357 38.0047 6.02797 39.0803 4.41761C37.6189 5.06781 36.0672 5.49245 34.4784 5.67703C36.1513 4.67425 37.4039 3.09893 38.004 1.2431C36.4302 2.1758 34.7091 2.83374 32.9144 3.18872C31.7052 1.90387 30.1064 1.05315 28.3652 0.768087C26.6241 0.483021 24.8374 0.779485 23.2816 1.61164C21.7258 2.4438 20.4875 3.76531 19.7581 5.37184C19.0287 6.97838 18.8488 8.78046 19.2463 10.4995C16.0595 10.3396 12.942 9.51173 10.0957 8.06966C7.24943 6.62759 4.73798 4.60347 2.72417 2.12851C1.70064 3.89319 1.38744 5.98139 1.84822 7.96869C2.309 9.956 3.50918 11.6933 5.20485 12.8275C3.93185 12.7871 2.68673 12.4443 1.57237 11.8276V11.9268C1.57123 13.7787 2.21145 15.5739 3.3842 17.0071C4.55696 18.4403 6.18986 19.4232 8.00535 19.7887C6.82611 20.1113 5.58845 20.1583 4.38813 19.9261C4.90043 21.5187 5.89717 22.9117 7.23925 23.9106C8.58132 24.9095 10.2018 25.4644 11.8744 25.4981C9.03475 27.7287 5.52689 28.9386 1.91585 28.9328C1.27546 28.9319 0.635704 28.8926 0 28.8153C3.66843 31.1688 7.93579 32.4188 12.2943 32.4165Z" fill="white"/>
</svg>
