<svg width="41" height="29" viewBox="0 0 41 29" fill="none" xmlns="http://www.w3.org/2000/svg">
<path d="M39.651 6.72419C39.651 6.72419 39.2693 4.02979 38.0938 2.8467C36.6054 1.28959 34.9415 1.28196 34.1782 1.19037C28.7131 0.793457 20.5077 0.793457 20.5077 0.793457H20.4925C20.4925 0.793457 12.2871 0.793457 6.822 1.19037C6.05871 1.28196 4.39475 1.28959 2.90634 2.8467C1.73088 4.02979 1.35687 6.72419 1.35687 6.72419C1.35687 6.72419 0.959961 9.89183 0.959961 13.0518V16.0134C0.959961 19.1734 1.34924 22.341 1.34924 22.341C1.34924 22.341 1.73088 25.0354 2.89871 26.2185C4.38712 27.7756 6.34113 27.7222 7.21128 27.8901C10.3408 28.1878 20.5001 28.2794 20.5001 28.2794C20.5001 28.2794 28.7131 28.2641 34.1782 27.8749C34.9415 27.7833 36.6054 27.7756 38.0938 26.2185C39.2693 25.0354 39.651 22.341 39.651 22.341C39.651 22.341 40.0402 19.181 40.0402 16.0134V13.0518C40.0402 9.89183 39.651 6.72419 39.651 6.72419ZM16.4623 19.6085V8.62477L27.0186 14.1357L16.4623 19.6085Z" fill="white"/>
</svg>
